<svg xmlns="http://www.w3.org/2000/svg" width="1200" height="350" viewBox="0 0 1200 350">

<defs>

<linearGradient id="bg" x1="0%" y1="0%" x2="100%" y2="100%">
<stop offset="0%" stop-color="#0d1117"/>
<stop offset="100%" stop-color="#161b22"/>
</linearGradient>

<filter id="glow">
<feGaussianBlur stdDeviation="3" result="blur"/>
<feMerge>
<feMergeNode in="blur"/>
<feMergeNode in="SourceGraphic"/>
</feMerge>
</filter>

</defs>

<!-- Background -->

<rect width="1200" height="350" fill="url(#bg)"/>

<!-- Grid -->

<g stroke="#30363d" stroke-width="1" opacity="0.15">

<path d="M0 50H1200"/>
<path d="M0 100H1200"/>
<path d="M0 150H1200"/>
<path d="M0 200H1200"/>
<path d="M0 250H1200"/>
<path d="M0 300H1200"/>

<path d="M100 0V350"/>
<path d="M200 0V350"/>
<path d="M300 0V350"/>
<path d="M400 0V350"/>
<path d="M500 0V350"/>
<path d="M600 0V350"/>
<path d="M700 0V350"/>
<path d="M800 0V350"/>
<path d="M900 0V350"/>
<path d="M1000 0V350"/>
<path d="M1100 0V350"/>

</g>

<!-- Title -->

<text
x="60"
y="80"
fill="white"
font-size="42"
font-family="monospace">

> whoami

</text>

<text
x="60"
y="130"
fill="#58a6ff"
font-size="56"
font-family="monospace"
filter="url(#glow)">

VLASTIMIR

</text>

<text
x="60"
y="170"
fill="#8b949e"
font-size="22"
font-family="monospace">

AI • Cybersecurity • Python • Open Source

</text>

<!-- Cursor -->

<rect
x="520"
y="95"
width="12"
height="40"
fill="#58a6ff">

<animate
attributeName="opacity"
values="1;0;1"
dur="1s"
repeatCount="indefinite"/>

</rect>

<!-- Terminal -->

<rect
x="60"
y="220"
width="430"
height="90"
rx="10"
fill="#010409"
stroke="#30363d"/>

<text
x="80"
y="250"
fill="#3fb950"
font-size="18"
font-family="monospace">

$ status

</text>

<text
x="80"
y="280"
fill="white"
font-size="18"
font-family="monospace">

Learning Python...

</text>

<text
x="80"
y="305"
fill="#58a6ff"
font-size="18"
font-family="monospace">

Building GitHub Profile...

</text>

<!-- Stats -->

<text x="620" y="70"
fill="white"
font-size="20"
font-family="monospace">

CPU

</text>

<rect x="620" y="85"
width="250"
height="10"
fill="#21262d"/>

<rect x="620" y="85"
width="180"
height="10"
fill="#3fb950">

<animate
attributeName="width"
values="140;200;170;180"
dur="3s"
repeatCount="indefinite"/>

</rect>

<text x="620"
y="130"
fill="white"
font-size="20"
font-family="monospace">

RAM

</text>

<rect x="620"
y="145"
width="250"
height="10"
fill="#21262d"/>

<rect
x="620"
y="145"
width="220"
height="10"
fill="#58a6ff">

<animate
attributeName="width"
values="180;230;200;220"
dur="4s"
repeatCount="indefinite"/>

</rect>

<text
x="620"
y="190"
fill="white"
font-size="20"
font-family="monospace">

GPU

</text>

<rect
x="620"
y="205"
width="250"
height="10"
fill="#21262d"/>

<rect
x="620"
y="205"
width="160"
height="10"
fill="#f0883e">

<animate
attributeName="width"
values="120;180;150;160"
dur="5s"
repeatCount="indefinite"/>

</rect>

<!-- Neural Network -->

<g
stroke="#58a6ff"
stroke-width="2"
opacity="0.6">

<line x1="940" y1="80" x2="1030" y2="130"/>
<line x1="940" y1="180" x2="1030" y2="130"/>
<line x1="1030" y1="130" x2="1110" y2="90"/>
<line x1="1030" y1="130" x2="1110" y2="210"/>

</g>

<g fill="#58a6ff">

<circle cx="940" cy="80" r="6">
<animate attributeName="r" values="6;9;6" dur="2s" repeatCount="indefinite"/>
</circle>

<circle cx="940" cy="180" r="6">
<animate attributeName="r" values="6;8;6" dur="3s" repeatCount="indefinite"/>
</circle>

<circle cx="1030" cy="130" r="7">
<animate attributeName="r" values="7;10;7" dur="2.5s" repeatCount="indefinite"/>
</circle>

<circle cx="1110" cy="90" r="6">
<animate attributeName="r" values="6;9;6" dur="2.8s" repeatCount="indefinite"/>
</circle>

<circle cx="1110" cy="210" r="6">
<animate attributeName="r" values="6;8;6" dur="3.5s" repeatCount="indefinite"/>
</circle>

</g>

<!-- Floating particles -->

<g fill="#58a6ff" opacity="0.5">

<circle cx="980" cy="280" r="2">
<animate attributeName="cy" values="280;250;280" dur="4s" repeatCount="indefinite"/>
</circle>

<circle cx="1080" cy="310" r="3">
<animate attributeName="cy" values="310;260;310" dur="6s" repeatCount="indefinite"/>
</circle>

<circle cx="1150" cy="260" r="2">
<animate attributeName="cy" values="260;220;260" dur="5s" repeatCount="indefinite"/>
</circle>

</g>

</svg>
